#!OML:ASF E:\emotionWalksFemale\Project 1\Capture day 1\Session 1\Female1.ASF
:FULLY-SPECIFIED
:DEGREES
3508
root 11.1615 15.5003 37.3605 8.32779 -41.1346 -4.92637
lowerback 13.5972 1.17485 -5.97907
upperback 5.4585 0.680343 -0.0828875
thorax -1.92781 0.225471 3.18587
lowerneck -5.96459 -2.6409 -4.78079
upperneck -5.71986 -3.10709 9.00784
head -0.544299 -1.53597 3.72531
rclavicle 1.15295e-014 -8.74653e-015
rhumerus -27.3247 -4.99052 -81.7895
rradius 33.3359
rwrist 17.5879
rhand -5.28343 -52.1238
rfingers 7.12502
rthumb 20.5211 -1161.06
lclavicle 1.15295e-014 -8.74653e-015
lhumerus -23.2509 23.7742 71.3083
lradius 39.221
lwrist -7.61964
lhand -5.00496 -30.966
lfingers 7.12502
lthumb 20.7886 -2.05966
rfemur -25.1096 -10.1495 29.9143
rtibia 42.9402
rfoot -16.9909 -30.0694
rtoes 21.5803
lfemur -15.3738 -7.81824 -19.7724
ltibia 29.9303
lfoot -23.0276 20.5813
ltoes -15.4901
3509
root 11.1489 15.4881 37.3853 8.79785 -41.8143 -5.4325
lowerback 13.3753 1.29343 -5.77458
upperback 5.48734 0.879503 0.00293665
thorax -1.7977 0.321154 3.13216
lowerneck -5.97848 -2.61611 -4.68223
upperneck -5.69331 -3.08478 8.79135
head -0.540642 -1.52498 3.63017
rclavicle -3.06128e-014 3.18055e-015
rhumerus -27.2893 -5.29915 -81.6702
rradius 33.2312
rwrist 17.9766
rhand -5.0495 -52.2974
rfingers 7.12502
rthumb 20.7459 -1161.21
lclavicle -3.06128e-014 3.18055e-015
lhumerus -23.2983 23.8004 71.3153
lradius 39.2543
lwrist -7.62053
lhand -4.79095 -31.2054
lfingers 7.12502
lthumb 20.9943 -2.32165
rfemur -25.1123 -10.4029 30.8518
rtibia 41.6608
rfoot -17.0342 -31.4256
rtoes 21.9044
lfemur -15.4791 -7.13332 -19.5166
ltibia 30.29
lfoot -22.9349 20.7869
ltoes -17.0675
3510
root 11.1449 15.4782 37.4149 9.07808 -41.9716 -5.58503
lowerback 13.2758 1.1873 -5.53635
upperback 5.44218 0.777263 0.0425017
thorax -1.78115 0.274054 3.05501
lowerneck -6.00471 -2.5817 -4.59503
upperneck -5.57704 -3.05337 8.54147
head -0.506958 -1.50718 3.52492
rclavicle 1.86858e-014 1.66979e-014
rhumerus -27.3375 -5.37624 -81.5339
rradius 33.204
rwrist 18.2405
rhand -4.80951 -52.4416
rfingers 7.12502
rthumb 20.9764 -1161.33
lclavicle 1.86858e-014 1.66979e-014
lhumerus -23.4602 23.9246 71.3064
lradius 39.3293
lwrist -7.60011
lhand -4.93441 -31.5236
lfingers 7.12502
lthumb 20.8564 -2.62464
rfemur -25.2 -11.1548 31.5845
rtibia 40.3145
rfoot -17.1822 -32.9748
rtoes 22.062
lfemur -15.7688 -6.88202 -19.4896
ltibia 30.6998
lfoot -23.0266 21.2682
ltoes -20.8372
3511
root 11.1437 15.4719 37.4384 9.10971 -42.1132 -5.45997
lowerback 13.3361 1.09691 -5.49186
upperback 5.41944 0.658178 0.00923885
thorax -1.82594 0.217351 3.01226
lowerneck -6.07367 -2.56466 -4.43825
upperneck -5.52111 -3.045 8.32039
head -0.48426 -1.50302 3.41645
rclavicle -9.62118e-014 5.80451e-014
rhumerus -27.3938 -5.11691 -81.5208
rradius 33.245
rwrist 18.0496
rhand -4.79902 -52.3865
rfingers 7.12502
rthumb 20.9865 -1161.27
lclavicle -9.62118e-014 5.80451e-014
lhumerus -23.5214 24.1231 71.2906
lradius 39.3338
lwrist -7.70942
lhand -4.74925 -31.7143
lfingers 7.12502
lthumb 21.0343 -2.835
rfemur -25.2232 -11.7751 32.0929
rtibia 38.9972
rfoot -18.01 -34.5583
rtoes 23.4406
lfemur -16.0086 -6.60765 -19.6618
ltibia 31.0912
lfoot -23.3406 21.3864
ltoes -22.0975
3512
root 11.1263 15.4706 37.4531 9.78987 -43.5279 -5.62159
lowerback 12.5734 1.47802 -5.79464
upperback 5.35724 1.17095 -0.0909808
thorax -1.52894 0.463555 3.01048
lowerneck -6.08656 -2.58384 -4.31489
upperneck -5.57775 -3.07526 8.34572
head -0.499708 -1.52195 3.40141
rclavicle 3.77691e-014 3.18055e-015
rhumerus -27.4184 -5.06009 -81.6254
rradius 33.3171
rwrist 17.7777
rhand -5.03353 -52.1998
rfingers 7.12502
rthumb 20.7612 -1161.11
lclavicle 3.77691e-014 3.18055e-015
lhumerus -23.4488 24.0016 71.2329
lradius 39.2758
lwrist -7.78149
lhand -4.34769 -31.6543
lfingers 7.12502
lthumb 21.42 -2.81837
rfemur -25.5506 -10.8223 32.6799
rtibia 37.7149
rfoot -20.1924 -35.835
rtoes 28.6296
lfemur -16.4882 -5.93943 -19.6935
ltibia 31.4351
lfoot -24.3711 21.2169
ltoes -18.2556
3513
root 11.1329 15.4507 37.4927 9.0569 -42.7205 -5.33085
lowerback 13.3314 1.05114 -5.17636
upperback 5.50924 0.629008 -0.203982
thorax -1.72376 0.202392 2.61557
lowerneck -5.94218 -2.57197 -4.44982
upperneck -5.66262 -3.04742 8.55249
head -0.547966 -1.51084 3.50291
rclavicle 1.98785e-015 -2.94201e-014
rhumerus -27.4472 -5.03038 -81.6979
rradius 33.4052
rwrist 17.6599
rhand -5.31149 -52.1082
rfingers 7.12502
rthumb 20.4941 -1161.05
lclavicle 1.98785e-015 -2.94201e-014
lhumerus -23.4393 23.9556 71.1799
lradius 39.1754
lwrist -7.82975
lhand -4.40396 -31.5739
lfingers 7.12502
lthumb 21.366 -2.73186
rfemur -24.9081 -12.5418 32.9148
rtibia 36.5553
rfoot -22.8302 -36.5736
rtoes 34.551
lfemur -16.0575 -6.78703 -19.9717
ltibia 31.6796
lfoot -24.7305 20.6896
ltoes -16.2156
3514
root 11.1193 15.4382 37.5074 9.57429 -43.6584 -5.51604
lowerback 12.9744 1.22988 -5.45297
upperback 5.37921 0.855307 -0.0991105
thorax -1.69009 0.313505 2.85029
lowerneck -5.88905 -2.5393 -4.53375
upperneck -5.61146 -3.0042 8.48307
head -0.543694 -1.48728 3.49597
rclavicle 3.33958e-014 -1.27222e-014
rhumerus -27.4456 -4.86487 -81.5946
rradius 33.4005
rwrist 17.8757
rhand -5.21456 -51.9291
rfingers 7.12502
rthumb 20.5872 -1160.86
lclavicle 3.33958e-014 -1.27222e-014
lhumerus -23.6976 24.1948 71.2109
lradius 39.2834
lwrist -7.76327
lhand -4.45161 -31.4534
lfingers 7.12502
lthumb 21.3202 -2.60617
rfemur -25.2622 -12.8183 33.6502
rtibia 35.4577
rfoot -22.4781 -37.833
rtoes 35.5921
lfemur -16.3731 -5.85594 -19.9496
ltibia 31.8846
lfoot -24.9501 20.865
ltoes -15.917
3515
root 11.1062 15.4328 37.529 9.67733 -44.2287 -5.50949
lowerback 12.9078 1.29337 -5.61324
upperback 5.34462 0.924449 -0.0457166
thorax -1.69866 0.346357 2.98699
lowerneck -6.02565 -2.53786 -4.48644
upperneck -5.46651 -3.0126 8.28974
head -0.477078 -1.48662 3.41583
rclavicle -3.89618e-014 -1.82882e-014
rhumerus -27.3864 -4.89388 -81.5055
rradius 33.2932
rwrist 18.1064
rhand -5.0979 -51.8152
rfingers 7.12502
rthumb 20.6994 -1160.73
lclavicle -3.89618e-014 -1.82882e-014
lhumerus -24.0711 24.3548 71.2701
lradius 39.5716
lwrist -7.80103
lhand -4.32506 -31.1429
lfingers 7.12502
lthumb 21.4418 -2.30943
rfemur -25.2978 -13.2747 34.1106
rtibia 34.5408
rfoot -21.0995 -39.1968
rtoes 33.1986
lfemur -16.3827 -5.33893 -20.0733
ltibia 32.0527
lfoot -24.936 21.1315
ltoes -15.6592
3516
root 11.0844 15.4327 37.5478 9.63037 -44.5337 -5.2928
lowerback 12.6769 1.32408 -5.72669
upperback 5.38736 0.966856 -0.0788396
thorax -1.53356 0.36085 3.01269
lowerneck -6.22177 -2.58654 -4.5641
upperneck -5.33136 -3.07507 8.32028
head -0.393484 -1.51092 3.43564
rclavicle -2.62396e-014 3.33958e-014
rhumerus -27.3326 -5.56993 -81.4383
rradius 33.1404
rwrist 18.5637
rhand -5.11533 -51.8412
rfingers 7.12502
rthumb 20.6826 -1160.76
lclavicle -2.62396e-014 3.33958e-014
lhumerus -23.9013 24.1337 71.3256
lradius 39.3738
lwrist -7.94469
lhand -4.46157 -31.1917
lfingers 7.12502
lthumb 21.3107 -2.34343
rfemur -25.2311 -13.6566 34.3959
rtibia 33.669
rfoot -18.7615 -40.5375
rtoes 29.0809
lfemur -16.3497 -5.34827 -20.2711
ltibia 32.1586
lfoot -24.9274 21.1239
ltoes -14.0056
3517
root 11.0751 15.4214 37.5703 9.55033 -45.2842 -5.21075
lowerback 12.6953 1.45981 -5.73767
upperback 5.38034 1.13779 -0.170384
thorax -1.56553 0.446504 2.89863
lowerneck -6.24277 -2.57953 -4.40099
upperneck -5.27113 -3.07948 8.22746
head -0.374762 -1.51469 3.37114
rclavicle -3.49861e-014 1.11319e-014
rhumerus -27.3398 -5.55593 -81.4208
rradius 33.1329
rwrist 18.499
rhand -5.17467 -51.9205
rfingers 7.12502
rthumb 20.6256 -1160.84
lclavicle -3.49861e-014 1.11319e-014
lhumerus -24.0485 24.2974 71.3152
lradius 39.3474
lwrist -8.30358
lhand -4.49936 -31.4694
lfingers 7.12502
lthumb 21.2744 -2.61702
rfemur -25.091 -14.0134 34.6787
rtibia 32.8629
rfoot -17.5342 -41.2394
rtoes 27.2289
lfemur -16.1815 -4.49347 -20.5103
ltibia 32.215
lfoot -25.0521 20.9001
ltoes -14.0843
